<svg xmlns="http://www.w3.org/2000/svg" viewBox="0 0 98 64"><path d="M11.606 37.32c0 .702-.162 1.35-.486 1.944s-.8 1.08-1.566 1.458v.054c.378.162.756.323 1.08.54s.594.486.863.756a3.44 3.44 0 0 1 .54.972c.108.378.216.756.216 1.242a5.3 5.3 0 0 1-.162 1.242c-.108.442-.323.863-.648 1.296s-.756.8-1.242 1.188c-.54.378-1.188.648-1.998.863-.216.054-.432.108-.648.108-.216.054-.486.054-.8.108-.27.054-.594.054-.972.054H-.113V33.052h5.616c1.188 0 2.16.108 2.915.378a4.88 4.88 0 0 1 1.404.702c.378.27.756.594.972.972.27.323.432.702.594 1.134.162.323.216.702.216 1.08zm-6.048 2.376c.8 0 1.404-.054 1.782-.217.432-.162.756-.432.972-.756.162-.323.27-.702.27-1.08 0-.432-.108-.8-.323-1.134s-.594-.594-1.134-.756L6.37 35.6c-.27-.054-.648-.054-1.08-.054H2.86v4.158h2.7zm-2.646 2.43v4.536h1.944l1.35-.054c.378-.054.702-.054.972-.162.432-.108.756-.217 1.026-.378s.486-.323.648-.486.27-.378.378-.648a3.17 3.17 0 0 0 .108-.702c0-.432-.108-.863-.378-1.188s-.648-.594-1.188-.756l-.8-.162c-.324-.054-.702-.054-1.188-.054H2.912zM27.48 37.86c0 1.134-.323 2.052-.918 2.862-.648.756-1.566 1.35-2.862 1.728v.054l4.752 6.642H24.9l-4.374-6.2h-1.998v6.2h-2.97V33.053h4.914a14.96 14.96 0 0 1 2.269.162c.703.108 1.296.217 1.782.432.972.378 1.674.918 2.214 1.62.54.648.756 1.566.756 2.592zm-7.505 2.592c.648 0 1.242-.054 1.728-.108s.863-.162 1.188-.27c.594-.217 1.026-.54 1.242-.918s.323-.8.323-1.35a2.51 2.51 0 0 0-.27-1.134c-.162-.324-.486-.594-.918-.8-.27-.108-.648-.217-1.08-.27s-.972-.108-1.566-.108h-2.106v4.914h1.458zm12.312 8.693V33.053h2.97v16.092h-2.97zM44.6 36.348l1.62 2.43h.054l1.62-2.43L50.215 33h3.402L48 40.938l5.832 8.208h-3.348l-2.538-3.618-1.728-2.484h-.054l-1.728 2.484-2.538 3.618H38.55l5.832-8.208-5.507-7.884h3.402l2.322 3.294zm18.63 12.797h-2.97V35.483h-5.184V33h13.337v2.484H63.23v13.662zM85.1 41.1c0 1.242-.162 2.376-.54 3.402-.323 1.026-.863 1.9-1.512 2.646s-1.512 1.296-2.484 1.728-2.106.594-3.348.594-2.376-.217-3.348-.594c-.972-.432-1.782-.972-2.484-1.728-.648-.756-1.188-1.62-1.512-2.646a11.23 11.23 0 0 1-.54-3.402c0-1.242.162-2.376.54-3.402.323-1.026.863-1.9 1.512-2.646s1.512-1.296 2.484-1.728 2.106-.594 3.348-.594 2.376.217 3.348.594c.972.432 1.782.972 2.484 1.728.648.756 1.188 1.62 1.512 2.646.378 1.026.54 2.16.54 3.402zm-3.078 0c0-.972-.108-1.836-.378-2.592-.216-.756-.594-1.35-1.026-1.836s-.918-.863-1.512-1.08-1.242-.378-1.944-.378-1.35.108-1.944.378c-.594.217-1.08.594-1.512 1.08s-.756 1.08-1.026 1.836c-.216.756-.378 1.566-.378 2.592 0 .972.108 1.836.378 2.592.216.756.594 1.35 1.026 1.836s.918.863 1.512 1.08c.594.27 1.242.378 1.944.378s1.35-.108 1.944-.378 1.08-.594 1.512-1.08.756-1.08 1.026-1.836.378-1.62.378-2.592zm8.53-8.047v13.662h7.56v2.43H87.635V33.052h2.915zM44.87 22.2V8.7h-9.6zM32.936 10.6V23h8.856zM47.73 21.93V8.483h9.665zm11.935-11.556V22.74H50.8zM27.212 3.3v25.217h37.853V3.3H27.212zm35.26 22.517h-32.56V6.053H62.42v19.764zm-59.3 34.667H2.048v-5.13H.104v-.918h5.02v.918H3.18v5.13zm12.312-.97h2.97v.918H14.36v-6.047h3.942v.918h-2.8v1.566h2.43v.918h-2.43v1.728zm14.093-3.888l.594.918.594-.918.863-1.242h1.296l-2.106 2.97 2.214 3.078h-1.188l-.972-1.35-.648-.918-.648.918-.972 1.404h-1.242l2.214-3.078-2.106-2.97h1.296l.8 1.188zm15.173 4.86h-1.134v-5.13h-1.944v-.918h5.02v.918H44.76v5.13zm11.18 0v-6.047h1.134v6.047H55.94zm12.04-6.1v5.13h2.862v.918H66.9v-6.047h1.08zm13.392 5.13h2.97v.918h-4.104v-6.047h3.942v.918h-2.808v1.566h2.43v.918h-2.43v1.728zm15.498-.8c0-.162-.054-.27-.108-.378s-.162-.162-.323-.217c-.108-.054-.27-.108-.432-.162s-.323-.054-.486-.108l-.702-.162c-.216-.054-.378-.162-.594-.27-.162-.108-.27-.27-.378-.486s-.162-.432-.162-.702c0-.323.054-.594.162-.863s.27-.432.432-.594a1.66 1.66 0 0 1 .702-.323c.27-.053.54-.108.863-.108s.648.054.972.108.594.162.863.27v.972c-.323-.108-.594-.217-.918-.27s-.54-.108-.8-.108c-.378 0-.648.054-.863.217-.216.108-.323.323-.323.594a.78.78 0 0 0 .108.378c.054.108.162.162.27.27.108.054.216.108.378.162s.323.054.486.108l.756.162c.27.054.432.162.648.323s.323.27.432.486.162.486.162.8a2.23 2.23 0 0 1-.162.863c-.108.217-.27.432-.54.594-.216.162-.486.27-.8.323s-.648.108-1.026.108c-.323 0-.648-.054-.972-.108a2.67 2.67 0 0 1-.8-.27v-.918l.863.27c.27.053.594.108.863.108.162 0 .323 0 .54-.054.162-.054.323-.054.432-.162.108-.054.216-.162.323-.27.162-.27.162-.378.162-.594z"/></svg>