<svg xmlns="http://www.w3.org/2000/svg" viewBox="0 0 1578.55 447.16"><path d="M573.3 1.5c-7.8 2.1-13 5.1-19.1 10.8-27.3 25.9-13.3 70.6 24.2 77 12.9 2.2 27.4-2.9 37.7-13.2 21-21 16.1-55-10.1-70.4-9.2-5.4-22.1-7-32.7-4.2zm152.4-.4c-22 5.2-37.7 28.5-34 50.4 3.4 19.8 18.1 34.5 37.8 37.7 13.5 2.3 26.7-2.4 37.6-13.2s15.4-23.9 13.1-37.6C776 12.9 750.3-4.7 725.7 1.1zm497.8 91.1c-8.4 38.4-16.6 55.3-33 68.9-13 10.8-37.3 17.9-61.5 17.9h-6v10h54.9l.6 202.5 2.3 7.5c5.4 17.4 16 30.3 31.2 37.8 23.3 11.4 59 13.7 83.3 5.3 15.2-5.3 32.6-17.4 44.3-30.8l6.2-7.1 4.4 4.5c15.7 16.3 38.3 28.9 62.1 34.9 13.7 3.4 39.4 4.4 53.9 2 28.7-4.7 53.2-17.7 73.4-38.8 18.8-19.7 31.3-44.6 37-73.3 2.6-12.8 2.6-40.4 0-54-5.6-30.1-19-56-39.5-76.6-24.3-24.2-52.5-36.3-87.6-37.6-70.8-2.6-127.4 46.2-138.4 119.4-1.8 11.7-1.4 34.6.8 47.5a148.16 148.16 0 0 0 22.3 56.5l5.5 8.2-3 3.8c-12.8 16.1-29.5 28.1-46.2 33.3-9.9 3.1-25.2 3.8-33 1.6-12.9-3.7-20.6-11.7-24.1-25.1-1.1-4-1.4-26.1-1.4-113.3V189h87v-10h-87V90h-4c-3.3 0-4 .4-4.5 2.2zm246 85.8c12.1 3.1 20 7.4 27.5 14.9 7.6 7.7 11.9 15.3 15.3 27.1 4.7 16.3 5.2 24.1 5.2 87.5 0 52.4-.2 60.2-1.8 69.8-6.1 36.3-21.1 52.8-53 58.3-11.1 2-33.7 1.4-43.7-1.1-28.7-7.1-43.1-27.3-47-66-.8-7.4-1-30.3-.7-70 .4-55 .6-59.6 2.5-68.5 4-18.4 9-29 17.7-37.5 5.1-5.1 15.4-11.1 23-13.5 13.6-4.4 40.1-4.9 55-1zm-1291-11.5c-27.9 5.2-50.6 22.6-69.1 53l-4.9 8-.3-30.8c-.1-16.9-.5-30.7-.8-30.7a32.8 32.8 0 0 0-5.1 4 34.57 34.57 0 0 1-11.2 6.2c-6.2 2-8.8 2.2-46.8 2.6l-40.3.4v9.8h50v241H0v10h152v-10h-48V248.5l5.1-10.5c9.7-20.3 24.3-39.2 37.4-48.6 12.6-8.9 28.7-14.4 42.2-14.4 7 0 17.9 2.2 22.3 4.5a36.31 36.31 0 0 1 13.7 13.8c5.3 10.6 5.3 9.5 5.3 127.4V430h-50v10l151.5-.5.3-4.7.3-4.8-24.3-.2-24.3-.3-.5-169.3 3.1-8.9c17.7-50.7 54.3-81.5 89.4-75.4 17.3 3 27.4 13.1 32.3 31.8 1.6 6.3 1.7 15.5 1.7 114.3v107.5l-24.7.3-24.8.2v10h599v-10h-48V249.7l4.6-8.6c15.4-28.6 35.7-50 55.8-59.1 10.1-4.6 18.1-6.3 29.6-6.4 12.7-.1 18.8 1.7 25.4 7.6 6 5.2 9.1 10.7 11.6 20.3 1.9 7.6 2 11.1 2 117.2V430h-50v10h154v-10h-49.9l-.4-103.3c-.3-95.1-.5-103.7-2.1-110.2-6.3-24.5-23.2-40.9-49.1-47.5-18.6-4.7-44.8-5.2-59.4-1-28.3 8.1-49.4 26.1-70.8 60.6-.9 1.5-1.2-5.1-1.2-31l-.1-32.9-4.6 4.3c-9.7 8.9-16.6 10-64.6 10H807v10h50l-.2 120.2-.3 120.3-46.7.3-46.8.2V164.9l-3.2 2.4a60.32 60.32 0 0 1-20.8 9.3c-6.3 1.5-13.2 1.8-44.2 2.2l-36.8.4v9.8h51l-.2 120.2-.3 120.3h-97l-.3-131.8-1.1-131.7a4.38 4.38 0 0 0-2.2 1.6c-2.1 2.5-10.4 6.4-18.7 8.6-7 1.9-11.1 2.1-44.9 2.6l-37.3.4v9.8h51l-.2 120.2-.3 120.3h-94L463 327c-.6-115-.1-106.2-8.3-123-7.3-15-21.4-26.8-39.4-33.1-10.4-3.6-19.6-5.1-34.3-5.6-16.9-.6-28.3 1.3-41.4 6.7-22 9.2-42.3 30-51.8 53.2-3.3 8.2-4.8 9.7-4.8 5 0-5.5-4.2-19.9-8.2-28.2-7.2-15-20.5-25.9-38.8-31.9-14.7-4.8-42.1-6.5-57.5-3.6z"/></svg>