<svg xmlns="http://www.w3.org/2000/svg" viewBox="0 0 1221.17 269.06"><path d="M398.6 2.62c-5.47 1.47-10.8 3.6-11.6 4.8-1.33 1.73-1.73 26.93-1.73 115.2 0 108.53.13 113.2 2.67 121.47 4.27 13.87 14.93 22.13 30.13 23.47 11.2.8 19.87-.67 24-4.27 3.47-2.93 3.47-3.07 1.87-10.8-2.53-11.6-3.33-12.67-9.2-12.67-7.33 0-12.93-2.27-14.67-6.13-1.07-2.4-1.47-34.93-1.47-116.93L417 1.42c-2.13-2.14-6.53-1.87-18.4 1.2zm603.47.4c-5.73 1.73-10.93 4-11.6 4.93s-1.2 15.47-1.2 32.13c0 23.47-.4 30.4-1.6 30.4-.93 0-6.8-.93-13.07-2.13-15.33-2.67-48.13-2.67-61.33.13-28.67 6-44.93 22.93-52.27 54.27-2.67 10.93-2.93 16.27-3.07 44.4 0 36.53 1.6 47.87 9.33 64.27 8.27 17.73 21.33 28.13 42.93 34 15.2 4.13 53.87 4.13 73.07 0 26.53-5.73 33.6-9.2 37.47-18.53 2.53-6 2.8-242.93.27-245.47-2.27-2.27-6.93-1.87-18.93 1.6zm-29.33 93.46c6.67 1.07 13.2 2.4 14.4 2.8 2 .8 2.13 6.93 1.87 68.4l-.4 67.47-11.33 2.27c-16.27 3.33-36.13 4.4-47.87 2.53-28.67-4.53-37.47-21.87-37.47-73.33.13-26.67 2.27-40.27 8.27-52.13 5.07-9.73 11.47-15.07 21.87-18 8.93-2.4 35.73-2.4 50.67 0zm-716.8-29.86C227.4 68.35 197.4 75 193.8 80.48c-1.6 2.53-1.6 4.27.13 12.8 3.07 14.67 2.4 14.4 24.93 9.33 22.8-5.07 35.2-6.67 50.4-6.8 22 0 36.4 4.13 39.87 11.6.93 2 2.13 10.13 2.4 17.87l.8 14-26.67 1.6c-63.47 3.73-88.13 13.47-97.87 38.8-3.6 9.47-5.07 32.8-2.53 44 4.93 22.67 18.93 35.87 44.67 42.4 13.2 3.33 56 3.2 74-.13 23.2-4.27 32.53-8.93 37.73-18.53 2.93-5.6 2.93-5.73 2.93-75.6 0-64.13-.27-70.53-2.4-76.93-7.72-22-35.72-31.2-86.25-28.27zm56 135.2v32.53l-6.94 2.13c-10.4 2.93-24.13 4.67-37.87 4.67-34.8 0-48.53-9.87-48.53-35.33 0-18.8 5.73-26.4 23.73-31.2 12.8-3.47 28.53-5.07 52-5.33l17.6-.13zm226-135.2c-28.53 1.87-58 8.53-61.47 13.87-1.6 2.53-1.6 4.27.13 12.8 2.8 13.07 3.87 14.13 12.93 12 54.8-13.2 95.6-12.4 102.27 2.13.93 2 2.13 10 2.4 17.87l.8 14-26.53 1.6c-63.6 3.73-88.27 13.47-98 38.8-3.73 9.47-5.07 32.8-2.53 44 3.33 15.33 12.8 28.53 25.2 35.2 16.93 9.33 49.6 12.53 82.67 8.4 29.87-3.87 42.67-9.07 48.4-19.87l3.07-5.6v-70c0-78.8 0-78.93-9.87-89.07-12.8-13.2-40.53-18.8-79.47-16.13zm56.67 135.2v32.53l-6.93 2.13c-10.4 2.93-24.13 4.67-37.87 4.67-34.8 0-48.53-9.87-48.53-35.33 0-18.8 5.73-26.4 23.73-31.2 12.8-3.47 28.53-5.07 52-5.33l17.6-.13v32.67zM744.47 66.75c-25.6 1.6-55.33 7.73-68.13 13.87a23.37 23.37 0 0 0-10 8.27l-3.07 4.93-.4 82.53c-.27 75.73-.13 82.67 1.87 84.93s4.27 2.53 15.33 2.53c11.6 0 13.2-.27 14.53-2.53.8-1.73 1.33-29.2 1.33-80v-77.33l5.07-1.47c27.2-7.6 67.87-10 78.13-4.53a17.87 17.87 0 0 1 8 8c2.67 5.07 2.8 7.73 3.47 79.87l1.73 76.27c.8 1.2 5.2 1.73 14.27 1.73 12.53 0 13.33-.13 15.33-3.2 1.87-2.8 2.13-11.87 1.73-79.73-.4-69.6-.67-76.93-2.93-83.07-8.93-25.07-31.06-34.14-76.26-31.07zm381.07-.13c-35.87 3.47-58 21.07-66.13 52.53-6.4 24.93-6.4 70.53 0 96 5.07 20.67 16.67 36 33.07 44 15.6 7.6 24 9.33 47.47 9.33s31.87-1.73 47.47-9.33c12.27-6 21.73-15.87 28.27-29.6l4.93-10.4.4-49.47c.4-47.6.27-50-2.4-58-5.33-15.87-16.67-29.47-30.53-36.4-14.13-7.2-40.13-10.8-62.53-8.67zm31.07 29.33c9.87 1.73 14.53 4.13 21.07 10.27s10 15.87 11.73 32.67.8 60-1.87 70.4c-5.6 22.4-18.53 30.8-48 30.67s-41.6-8.27-47.2-32c-3.07-12.8-3.33-66.53-.53-79.47 4.4-19.87 14.53-29.87 33.47-33.07 6.93-1.2 23.73-.93 31.33.53zM3.4 72.62c-2.93 2.8-3.86 7.6-3.2 15.2 1.07 11.46-3.06 10.66 59.87 10.66 30.8 0 55.87.4 55.87.93s-23.2 28.4-51.47 61.73C-5.4 243.42 2.6 232.35 2.6 247c0 10.27.4 12.8 2.4 14.53 2.27 2 9.47 2.27 76 2.27 84.53 0 76.27 1.6 76.27-14.4 0-14.53 4.27-13.47-59.47-13.87l-54.67-.4 53.2-62.67 57.07-67.87c3.6-4.8 3.87-6 3.87-17.07 0-18.8 8-17.07-78.53-17.07-64.8 0-73.47.27-75.33 2.13z"/></svg>