<svg xmlns="http://www.w3.org/2000/svg" viewBox="0 0 1276.98 287.6"><path d="M103.08 1.3c-20.6 4.5-37.4 21.5-41.8 42.2-1.9 8.6-1.8 14 0 22.8a50.78 50.78 0 0 0 13.9 26 76.8 76.8 0 0 0 8.5 7.6l2.4 1.5-42.8 90.4L.08 284c-.5 1.7.9 1.8 20.4 1.8h20.9l10.4-22.3 11.9-24.6c3.2-4.9 4.8-5.1 51.8-5.1 41.9 0 43.9.1 47.1 2s7.3 9.5 21.5 40.2l4.6 9.8h20.5c11.3 0 20.6-.2 20.6-.5s-19.3-41.6-42.8-91.8l-42.8-91.4 6.5-5.9c24.2-22.1 25.4-57.2 2.6-79.9-13.6-13.6-31.7-19-50.2-15zm25.4 26.6c10.9 5.3 16.8 14.7 16.7 26.9 0 8.8-2.2 14.5-7.9 20.8-11.7 13.1-33.3 13.1-45 0-5.8-6.3-7.9-12-7.9-20.8.1-14.6 8.8-25.6 23.3-29.7 6.32-1.7 13.4-.8 20.8 2.8zm-8.6 109.1c3.9 7.7 28.9 62.1 28.9 63 0 .4-15.3.8-34.1.8-26.9 0-34-.3-33.6-1.3 3.6-8.8 29.3-63.7 30.5-65 2.8-3.1 5.9-2.2 8.3 2.5zm635.7-72.7l-23.3 21.4-22.2.1h-22.3v200h149v-13.9c0-7.7-.4-15.1-1-16.5l-1-2.6h-53.5c-52.3 0-53.5 0-55.5-2s-2-3.1-1.8-26.8l.3-24.7 39.5-.3c35.7-.2 39.6-.4 40.8-1.9.8-1.1 1.2-5.9 1.2-14.8 0-11.5-.2-13.4-1.8-14.8s-6-1.7-41-1.7h-39.2v-21.3c0-17.6.3-21.6 1.6-23.5l1.5-2.2h50.3c37.7 0 50.5-.3 51.4-1.2s1.2-5.9 1.2-16.5V85.8h-36.2c-30.4 0-36-.2-34.8-1.3.8-.8 15.9-10.1 33.5-20.7l32.9-20.1c.5-.5-9-.9-22.6-.9H779zm431.7 18.1c-24.1 3.4-39.2 10-51.5 22.3-11.7 11.8-16 21.9-16 37.8 0 23.2 13.8 39.7 42.6 51.2 9.4 3.8 17.8 6 43.2 11.6 12 2.6 21.1 6.2 25.1 9.8 5.3 4.9 7.4 13.6 5 20.8-4.1 12.1-16.6 18-38.2 18-22.6 0-41.7-6.8-59.6-21.3l-5.8-4.6-9.4 11.1c-13.6 16.1-12.8 14.2-8.3 18.9 5.2 5.4 18.3 14 27.9 18.3 18.6 8.5 37.5 12 61 11.2 19-.6 27.6-2.5 41.2-9.2 15.3-7.5 25.9-19.1 30.4-33.4 1.6-5 2.1-9.2 2.1-17.1 0-16.8-4.5-27.6-15.9-38s-26.3-16.5-55.3-22.5c-27.7-5.8-39.3-11.3-44-21-6.3-13 4-25.8 24.2-29.9 9.5-2 14.6-2 26.8-.1 15 2.2 29.3 7.4 38.3 13.7 1.6 1.1 3 1.9 3.1 1.7 1.4-1.6 16.6-26.8 16.6-27.5 0-1-10.1-8-15.5-10.6-5.6-2.9-18.9-7-28.4-8.9-9.2-1.8-33.3-3.2-39.6-2.3zm-918.5 103.4v100h36v-83.9l2.2-1.5c2-1.4 8.3-1.6 49.3-1.6s47.3.2 49.3 1.6l2.2 1.5v83.9h36v-200h-36v38.1c0 24.3-.4 38.7-1 40-1 1.8-2.7 1.9-50.5 1.9s-49.5-.1-50.5-1.9c-.6-1.3-1-15.7-1-40V85.8h-36zm238 0v100h135v-15.3c0-10.6-.4-15.7-1.2-16.5s-12.8-1.2-47.3-1.2c-40.1 0-46.3-.2-48.3-1.6l-2.2-1.5V85.8h-36zm382 0v100h36v-68.6l.9-68.2c.5.2 24.1 30.7 52.5 67.9 34.1 44.8 52.4 67.9 53.8 68.3s9.6.6 18.6.6h16.2v-200h-37v68l-.8 68c-.4 0-24.2-30.6-52.6-68l-51.8-68h-35.8z"/></svg>